<svg version="1.2" xmlns="http://www.w3.org/2000/svg" viewBox="0 0 32 32" width="32" height="32">
	<title>whatsapp-svg</title>
	<style>
		.s0 { fill: #f5f1ff } 
	</style>
	<path id="Layer" fill-rule="evenodd" class="s0" d="m30.9 15.9c0 8.2-6.6 14.8-14.8 14.8-2.6 0-5.1-0.6-7.1-1.8l-7.9 2.1 2.1-7.7c-1.3-2.2-2-4.7-2-7.4 0-8.2 6.7-14.9 14.9-14.9 4.1 0 7.8 1.7 10.5 4.4 2.7 2.7 4.3 6.4 4.3 10.5zm-27.7 7.5v-0.1q0 0 0 0.1zm25.2-7.5c0-6.8-5.5-12.4-12.3-12.4-6.9 0-12.4 5.6-12.4 12.4 0 2.4 0.7 4.7 1.9 6.5l0.3 0.5-1.3 4.6 4.7-1.3 0.5 0.3h-0.1c1.9 1.1 4 1.7 6.4 1.7 6.8 0 12.3-5.5 12.3-12.3zm-4.9 3.5q0.1 0.3 0.1 0.5 0 0.7-0.3 1.3c-0.5 0.9-1.4 1.5-2.5 1.7h0.1q-0.5 0.1-0.9 0.1-0.8 0-1.5-0.2h-0.2c-0.7-0.3-1.4-0.5-1.9-0.8h-0.1c-2.5-1.3-4.7-3.2-6.3-5.6-0.8-1-1.4-2.4-1.5-3.8q0-0.1 0-0.1c0-1.2 0.5-2.3 1.3-3 0.3-0.3 0.6-0.5 1-0.5q0.4 0 0.7 0c0.2 0 0.5-0.1 0.8 0.7 0.4 0.7 1.1 2.5 1.2 2.7q0.1 0.2 0.1 0.4 0 0.1-0.1 0.3-0.1 0.3-0.3 0.6c-0.2 0.2-0.4 0.5-0.6 0.6-0.2 0.2-0.4 0.4-0.2 0.8h0.1q0.8 1.4 2 2.6 1.3 1.1 3 1.8c0.4 0.2 0.6 0.2 0.8-0.1 0.2-0.2 0.9-1.1 1.2-1.4 0.2-0.4 0.5-0.4 0.8-0.2 0.3 0.1 2.2 1 2.5 1.2 0.4 0.2 0.7 0.3 0.7 0.4zm-9-1.7q0 0 0 0 0 0 0 0z"/>
</svg>