<svg version="1.2" xmlns="http://www.w3.org/2000/svg" viewBox="0 0 32 32" width="32" height="32">
	<title>facebook-svgrepo-com-svg</title>
	<style>
		.s0 { fill: #f5f1ff } 
	</style>
	<path id="Layer" class="s0" d="m18.3 30.9v-10.5h3.5l0.7-4.3h-4.2v-2.8q0-0.1 0-0.2c0-1.2 1-2.2 2.2-2.2q0.2 0 0.3 0h1.9v-3.7l0.1 0.1q-1.7-0.3-3.5-0.3-0.2-0.1-0.4-0.1c-2.9 0-5.3 2.4-5.3 5.3q0 0.3 0.1 0.6v3.3h-3.9v4.3h3.9v10.5h-0.1c-7.2-1.2-12.6-7.4-12.6-14.8 0-8.3 6.7-15 15-15 8.3 0 15 6.7 15 15 0 7.4-5.4 13.6-12.7 14.8z"/>
</svg>